<svg xmlns="http://www.w3.org/2000/svg" viewBox="0 0 561.93 256.08"><defs><style>.cls-1,.cls-5,.cls-6{fill:#010101;}.cls-2,.cls-7{fill:none;}.cls-2{stroke:#231f20;stroke-width:0.3px;}.cls-2,.cls-5,.cls-6,.cls-7{stroke-miterlimit:10;}.cls-3{fill:#231f20;}.cls-4{fill:#883593;}.cls-5,.cls-6,.cls-7{stroke:#010101;stroke-linecap:round;}.cls-5{stroke-width:1.4px;}.cls-6{stroke-width:1.34px;}.cls-7{stroke-width:2.09px;}.cls-8{fill:#187cac;}.cls-9{fill:#e6e648;}.cls-10{fill:#f89836;}</style></defs><g id="Layer_2" data-name="Layer 2"><g id="Layer_1-2" data-name="Layer 1"><path class="cls-1" d="M230,206.82q-4.71,26.69-16.58,38t-37.2,11.29q-21.78,0-35.52-11.78-2.55-2-.39-4.71l12-15.31c1.44-1.83,3-2,4.71-.58a39.3,39.3,0,0,0,21.78,6.08q17.67,0,21.4-19a57.29,57.29,0,0,1-17.47,2.95q-19,0-28.46-12.07t-5.89-31.51l3.34-18.64q3.54-20,17.27-29.93t33.76-9.91a94.66,94.66,0,0,1,39.45,8.24q2.75,1.57,2.16,4.32Zm-52-34.15q-2.76,15.69,12,15.7,9.22,0,14.33-3.73L212,139.89q-3.72-2.35-11.77-2.36-16.09,0-18.65,14.92Z"/><path class="cls-1" d="M448.39,216.43H425.63q-3.74,0-3.15-3.72L438,123.6a5.31,5.31,0,0,1,2.94-3.73,84.93,84.93,0,0,1,36.31-8.24,79.9,79.9,0,0,1,16.29,1.76c2.23.39,3.14,1.71,2.75,3.93l-3.53,19.23c-.27,2.23-1.57,3.21-3.93,2.95a64.07,64.07,0,0,0-11.38-1,33.12,33.12,0,0,0-12.76,2.36l-12.76,72.42C451.53,215.39,450.36,216.43,448.39,216.43Z"/><path class="cls-1" d="M510.81,216.43H488q-3.54,0-3-3.72L502,117.32c.13-2,1.31-2.95,3.54-2.95h22.76c2.49,0,3.53,1.18,3.14,3.54l-16.88,95.38A3.43,3.43,0,0,1,510.81,216.43Z"/><path class="cls-1" d="M283.33,115.75a44.07,44.07,0,0,1,19.24-4.12q17.46,0,26,12.46t4.81,34l-9.81,55.15a3.19,3.19,0,0,1-3.53,3.14H297.47q-3.74,0-3.15-3.72l10-58.1q3.35-17.27-12.16-17.27A29.26,29.26,0,0,0,279,140.67l-12.76,72.62a3.44,3.44,0,0,1-3.73,3.14H240q-3.54,0-3.14-3.72L260.57,79.24a3.2,3.2,0,0,1,3.53-3.14h22.57c2.35,0,3.34,1.25,2.94,3.73Z"/><path class="cls-1" d="M405.69,114.08h23c2.35,0,3.34,1.18,2.94,3.54L415.7,207.31a4.78,4.78,0,0,1-2.95,3.53,104.66,104.66,0,0,1-39.45,7.66q-21.58,0-31.5-12.66t-6.18-33.66L345.43,117a3.28,3.28,0,0,1,3.54-3h22.76q3.54,0,2.95,3.54l-9.82,57.5q-3.14,17.87,12,17.86A31.12,31.12,0,0,0,389,190.83L402.15,117C402.41,115.07,403.59,114.08,405.69,114.08Z"/><path class="cls-1" d="M242.48,246.7a15.61,15.61,0,0,1-5.19.85,5.14,5.14,0,0,1-3.85-1.34,3.68,3.68,0,0,1-.9-3.4c.43-2.33,2.32-3.48,5.68-3.47a11.81,11.81,0,0,1,2.12.21l0-.4a1.73,1.73,0,0,0-.19-1.43,1.85,1.85,0,0,0-1.49-.47,6.9,6.9,0,0,0-3,.56c-.28.13-.47.06-.57-.2l-.76-2.05c-.09-.25-.06-.42.07-.5a9.73,9.73,0,0,1,5.1-1.15,4.37,4.37,0,0,1,3.76,1.61,5.47,5.47,0,0,1,.68,4.4l-1.15,6.31A.57.57,0,0,1,242.48,246.7ZM236.26,243a1,1,0,0,0,.27,1.05,1.87,1.87,0,0,0,1.25.35,7.49,7.49,0,0,0,1.72-.19l.36-2.17a7.47,7.47,0,0,0-1.6-.18C237.06,241.88,236.4,242.26,236.26,243Z"/><path class="cls-1" d="M252.59,235a12.21,12.21,0,0,1,5-1,5,5,0,0,1,4.05,1.65,4.87,4.87,0,0,1,.94,4.16l-.51,2.87a5.94,5.94,0,0,1-2,3.59,5.64,5.64,0,0,1-3.82,1.35,4.84,4.84,0,0,1-2.42-.56l-.84,4.57a.39.39,0,0,1-.45.39h-2.9c-.29,0-.42-.16-.37-.47l2.89-16.09A.61.61,0,0,1,252.59,235Zm5.81,7.16.46-2.64a2.19,2.19,0,0,0-.16-1.72,1.69,1.69,0,0,0-1.42-.53,3.41,3.41,0,0,0-1.65.36L254.48,244a2.51,2.51,0,0,0,1.59.48C257.35,244.47,258.13,243.7,258.4,242.17Z"/><path class="cls-1" d="M269.21,247.56a6.46,6.46,0,0,1-1.32.12,3.35,3.35,0,0,1-3-1.47,5.29,5.29,0,0,1-.53-3.91l2.25-12.4a.42.42,0,0,1,.45-.39H270c.3,0,.43.16.38.47l-2.25,12.52c-.24,1.25.08,1.88,1,1.88h.5a.41.41,0,0,1,.33.08.39.39,0,0,1,.07.32l-.41,2.37C269.49,247.41,269.38,247.55,269.21,247.56Z"/><path class="cls-1" d="M281,246.86a15.71,15.71,0,0,1-5.2.86,5.18,5.18,0,0,1-3.85-1.34,3.69,3.69,0,0,1-.9-3.4q.64-3.49,5.68-3.47a10.4,10.4,0,0,1,2.13.21l.05-.4a1.75,1.75,0,0,0-.2-1.44,1.87,1.87,0,0,0-1.49-.47,7,7,0,0,0-3,.56c-.29.14-.48.07-.58-.2l-.76-2.05c-.08-.25-.06-.41.07-.5a9.85,9.85,0,0,1,5.1-1.15,4.41,4.41,0,0,1,3.76,1.61,5.48,5.48,0,0,1,.68,4.4l-1.15,6.31A.55.55,0,0,1,281,246.86Zm-6.23-3.67a1.07,1.07,0,0,0,.27,1.05,1.88,1.88,0,0,0,1.25.36,7.52,7.52,0,0,0,1.72-.2l.36-2.17a9,9,0,0,0-1.6-.18C275.53,242.05,274.86,242.43,274.72,243.19Z"/><path class="cls-1" d="M291,238h-2l-.87,4.81c-.2,1.15.2,1.72,1.22,1.73H290a.45.45,0,0,1,.34.09.37.37,0,0,1,.06.34l-.41,2.32a.45.45,0,0,1-.43.42,6.67,6.67,0,0,1-1.27.12,4,4,0,0,1-3.26-1.36,4.77,4.77,0,0,1-.61-4l1.92-10.7a.44.44,0,0,1,.47-.4h2.45q.48,0,.42.45l-.16,3h2c.31,0,.45.16.39.47l-.41,2.3A.44.44,0,0,1,291,238Z"/><path class="cls-1" d="M300.87,232.7a6.2,6.2,0,0,0-1-.08c-1,0-1.66.57-1.88,1.74l-.08.5h2.2c.3,0,.43.16.39.48l-.41,2.29a.44.44,0,0,1-.47.4h-2.3l-1.66,9.06a.4.4,0,0,1-.45.39h-2.9c-.31,0-.44-.16-.39-.47l2.37-13c.57-3.12,2.41-4.68,5.54-4.67a9,9,0,0,1,1.57.11c.29,0,.4.22.35.52l-.43,2.37C301.26,232.61,301.12,232.73,300.87,232.7Z"/><path class="cls-1" d="M311.74,242.93a5.64,5.64,0,0,1-2.11,3.64,7,7,0,0,1-4.43,1.27,4.77,4.77,0,0,1-3.85-1.65,4.69,4.69,0,0,1-.91-4l.53-3.09a5.64,5.64,0,0,1,2.16-3.57,6.94,6.94,0,0,1,4.33-1.29,4.83,4.83,0,0,1,3.9,1.64,4.57,4.57,0,0,1,1,3.94Zm-7.56-.39a1.92,1.92,0,0,0,.2,1.48,1.45,1.45,0,0,0,1.26.55,2.07,2.07,0,0,0,2.31-1.86l.58-3.19a1.87,1.87,0,0,0-.24-1.46,1.4,1.4,0,0,0-1.27-.59,2.18,2.18,0,0,0-1.5.5,2.22,2.22,0,0,0-.75,1.36Z"/><path class="cls-1" d="M316.61,247.56h-2.89c-.32,0-.45-.16-.4-.47l2-11.33a.68.68,0,0,1,.37-.47,11,11,0,0,1,4.63-1,9.54,9.54,0,0,1,2.07.24.38.38,0,0,1,.35.5l-.47,2.44a.39.39,0,0,1-.5.37,8.38,8.38,0,0,0-1.44-.13,4.46,4.46,0,0,0-1.63.29l-1.66,9.21A.42.42,0,0,1,316.61,247.56Z"/><path class="cls-1" d="M332.69,235.3a7.85,7.85,0,0,1,3.7-1,4.41,4.41,0,0,1,3.78,1.71,5.58,5.58,0,0,1,.78,4.4l-1.27,6.83a.42.42,0,0,1-.46.4H336.4q-.45,0-.39-.48l1.3-7.28c.27-1.53-.22-2.3-1.49-2.3a3.34,3.34,0,0,0-1.67.44,6.55,6.55,0,0,1,0,2.37l-1.25,6.83a.4.4,0,0,1-.45.4h-2.82c-.32,0-.45-.16-.4-.48l1.31-7.28c.27-1.53-.19-2.3-1.37-2.3a3.24,3.24,0,0,0-1.45.29L326,247.21a.42.42,0,0,1-.45.39h-2.87c-.3,0-.43-.16-.38-.47l2.12-11.4a.62.62,0,0,1,.38-.45,12.19,12.19,0,0,1,4.85-1A4.82,4.82,0,0,1,332.69,235.3Z"/><path class="cls-1" d="M356.21,232.93a6.41,6.41,0,0,0-1-.08,1.82,1.82,0,0,0-1.88,1.74l-.08.5h2.2c.3,0,.43.16.4.48l-.41,2.29a.44.44,0,0,1-.48.4h-2.29L351,247.31a.41.41,0,0,1-.45.4h-2.9c-.32,0-.45-.16-.4-.48l2.38-13q.84-4.69,5.54-4.67a10.45,10.45,0,0,1,1.57.1.4.4,0,0,1,.34.53l-.43,2.37C356.59,232.84,356.46,233,356.21,232.93Z"/><path class="cls-1" d="M367.07,243.16a5.66,5.66,0,0,1-2.11,3.65,7.05,7.05,0,0,1-4.42,1.27,4.59,4.59,0,0,1-4.77-5.69l.54-3.09a5.57,5.57,0,0,1,2.16-3.57,7,7,0,0,1,4.32-1.3,4.89,4.89,0,0,1,3.9,1.64,4.59,4.59,0,0,1,1,4Zm-7.56-.38a1.87,1.87,0,0,0,.21,1.48,1.43,1.43,0,0,0,1.26.55,2.08,2.08,0,0,0,2.3-1.86l.59-3.2a1.92,1.92,0,0,0-.25-1.46,1.41,1.41,0,0,0-1.27-.59,2.17,2.17,0,0,0-2.25,1.86Z"/><path class="cls-1" d="M371.94,247.8h-2.89c-.32,0-.45-.16-.4-.48l2-11.32a.67.67,0,0,1,.38-.47,10.64,10.64,0,0,1,4.62-1,10,10,0,0,1,2.07.23.38.38,0,0,1,.35.5l-.46,2.45a.39.39,0,0,1-.5.37,7.67,7.67,0,0,0-1.45-.13,4.18,4.18,0,0,0-1.62.29l-1.66,9.2A.44.44,0,0,1,371.94,247.8Z"/><path class="cls-1" d="M383.19,239.31a5.33,5.33,0,0,1,2.15-3.56,6.78,6.78,0,0,1,4.08-1.2,5.22,5.22,0,0,1,3.9,1.39,4.24,4.24,0,0,1,.87,4l-.43,2.42a.42.42,0,0,1-.45.38l-6.94,0-.08.35c-.25,1.31.32,2,1.72,2a6.25,6.25,0,0,0,3.24-1c.27-.18.46-.14.58.13l1,1.92q.18.43-.15.6a9,9,0,0,1-5.22,1.5,5.32,5.32,0,0,1-4-1.45,4.06,4.06,0,0,1-1-3.81Zm7.28.91.13-.62a1.71,1.71,0,0,0-.23-1.34,1.48,1.48,0,0,0-1.28-.54,2,2,0,0,0-1.39.46,2.25,2.25,0,0,0-.74,1.35l-.13.67Z"/><path class="cls-1" d="M401.35,247.93l-3.3,0c-.3,0-.46-.13-.47-.4l-1.87-12.14c0-.3.11-.45.43-.45l2.89,0a.39.39,0,0,1,.45.4l.57,5.37c.12,1,.21,2.14.29,3.29h.05l.63-1.53c.32-.77.56-1.36.73-1.78l2.4-5.41a.56.56,0,0,1,.52-.32h3.1c.36,0,.46.17.29.5l-6.21,12.13A.52.52,0,0,1,401.35,247.93Z"/><path class="cls-1" d="M408.27,239.42a5.37,5.37,0,0,1,2.15-3.56,6.91,6.91,0,0,1,4.09-1.21,5.26,5.26,0,0,1,3.9,1.39,4.3,4.3,0,0,1,.87,4l-.44,2.42a.41.41,0,0,1-.45.37l-6.94,0-.07.35c-.26,1.32.31,2,1.71,2a6.37,6.37,0,0,0,3.25-1c.27-.19.46-.14.57.13l1,1.92q.17.42-.15.6a9,9,0,0,1-5.23,1.5,5.36,5.36,0,0,1-3.95-1.45,4.05,4.05,0,0,1-1-3.81Zm7.29.91.12-.63a1.64,1.64,0,0,0-.23-1.34,1.5,1.5,0,0,0-1.28-.54,2.12,2.12,0,0,0-1.39.47,2.32,2.32,0,0,0-.74,1.35l-.13.67Z"/><path class="cls-1" d="M423.41,248h-2.89c-.32,0-.45-.16-.4-.48l2-11.32a.65.65,0,0,1,.38-.47,10.64,10.64,0,0,1,4.62-1,10.17,10.17,0,0,1,2.07.23.38.38,0,0,1,.35.5l-.46,2.45a.4.4,0,0,1-.5.37,7.67,7.67,0,0,0-1.45-.13,4.08,4.08,0,0,0-1.63.29l-1.66,9.2A.42.42,0,0,1,423.41,248Z"/><path class="cls-1" d="M436.71,244.11l1.56-8.63a.43.43,0,0,1,.47-.37h2.87c.3,0,.43.15.4.45L440,246.87a8.44,8.44,0,0,1-2.17,4.81,7.91,7.91,0,0,1-9.1,0,.37.37,0,0,1-.05-.6l1.56-2c.15-.21.35-.24.62-.09a4.59,4.59,0,0,0,2.67.81,2.64,2.64,0,0,0,1.83-.57,3.06,3.06,0,0,0,.85-1.87,6.73,6.73,0,0,1-2.13.37,4,4,0,0,1-3.43-1.58,5.18,5.18,0,0,1-.71-4.08l1.23-6.61c0-.25.16-.38.45-.37h2.87c.31,0,.45.15.4.45l-1.28,6.88c-.27,1.4.21,2.1,1.46,2.11A3.22,3.22,0,0,0,436.71,244.11Z"/><path class="cls-1" d="M450.77,248.14h-2.9c-.31,0-.45-.17-.4-.48l2.1-11.4a.64.64,0,0,1,.38-.45,14.3,14.3,0,0,1,5.07-1,4.81,4.81,0,0,1,4,1.64,5.19,5.19,0,0,1,.78,4.32l-1.27,7a.44.44,0,0,1-.48.4h-2.87c-.3,0-.43-.16-.4-.48l1.28-7.28q.46-2.29-1.56-2.31a3.81,3.81,0,0,0-1.6.3l-1.69,9.35A.44.44,0,0,1,450.77,248.14Z"/><path class="cls-1" d="M462.23,239.65a5.37,5.37,0,0,1,2.15-3.56,6.91,6.91,0,0,1,4.09-1.21,5.3,5.3,0,0,1,3.9,1.39,4.31,4.31,0,0,1,.87,4l-.44,2.42a.41.41,0,0,1-.45.37l-6.93,0-.08.35c-.26,1.32.31,2,1.71,2a6.28,6.28,0,0,0,3.25-1c.27-.18.46-.14.57.13l1,1.92q.17.42-.15.6a9,9,0,0,1-5.22,1.5,5.38,5.38,0,0,1-4-1.45,4.05,4.05,0,0,1-1-3.81Zm7.29.91.13-.63a1.64,1.64,0,0,0-.24-1.33,1.48,1.48,0,0,0-1.28-.55,2.12,2.12,0,0,0-1.39.47,2.32,2.32,0,0,0-.74,1.35l-.13.67Z"/><path class="cls-1" d="M475.19,239.71a5.31,5.31,0,0,1,2.15-3.56,6.79,6.79,0,0,1,4.08-1.21,5.26,5.26,0,0,1,3.9,1.39,4.25,4.25,0,0,1,.87,4l-.43,2.42a.42.42,0,0,1-.45.37l-6.94,0-.08.35c-.25,1.31.32,2,1.72,2a6.36,6.36,0,0,0,3.24-1c.27-.18.46-.14.58.13l1,1.93c.12.28.07.48-.15.59a9,9,0,0,1-5.22,1.51,5.36,5.36,0,0,1-4-1.46,4,4,0,0,1-1-3.81Zm7.28.9.13-.62a1.71,1.71,0,0,0-.23-1.34,1.48,1.48,0,0,0-1.28-.54,2.05,2.05,0,0,0-1.39.47,2.19,2.19,0,0,0-.74,1.34l-.13.68Z"/><path class="cls-1" d="M497.52,247.74a13.23,13.23,0,0,1-5,.9,5.07,5.07,0,0,1-4.07-1.65,4.84,4.84,0,0,1-.94-4.16L488,240a6,6,0,0,1,2-3.61,5.61,5.61,0,0,1,3.8-1.36,5.27,5.27,0,0,1,2.42.54l.84-4.64a.42.42,0,0,1,.45-.4h2.9c.31,0,.45.16.39.48l-2.94,16.31A.52.52,0,0,1,497.52,247.74Zm-6.22-4.62a2,2,0,0,0,.17,1.67,1.66,1.66,0,0,0,1.42.53,4,4,0,0,0,1.64-.26l1.16-6.44a2.93,2.93,0,0,0-1.65-.43c-1.23,0-2,.75-2.26,2.26Z"/><path class="cls-1" d="M511.13,244.85a4.23,4.23,0,0,1-1.91,2.89,7.28,7.28,0,0,1-3.94,1,7.75,7.75,0,0,1-5.06-1.7.38.38,0,0,1-.07-.6l1.43-1.94a.4.4,0,0,1,.6-.1,5.27,5.27,0,0,0,3.24,1.09c1.14,0,1.79-.31,1.92-.94a.61.61,0,0,0-.17-.61,1.48,1.48,0,0,0-.56-.34c-.21-.07-.53-.15-1-.26a5.68,5.68,0,0,1-3.11-1.59,3.22,3.22,0,0,1-.71-3.09c.5-2.39,2.39-3.58,5.65-3.57a8.71,8.71,0,0,1,4.39,1.17c.25.15.28.35.1.6l-1.48,2a.41.41,0,0,1-.6.13,5.37,5.37,0,0,0-2.77-.69c-1,0-1.52.27-1.6.82a.64.64,0,0,0,.33.76,6.76,6.76,0,0,0,1.51.49,6.22,6.22,0,0,1,3,1.5A3.14,3.14,0,0,1,511.13,244.85Z"/><path class="cls-1" d="M529.59,108.89h-22.7a2.16,2.16,0,0,1-2.12-3l3.81-13.52a4.2,4.2,0,0,1,3.78-3h22.7a2.16,2.16,0,0,1,2.12,3l-3.81,13.52A4.2,4.2,0,0,1,529.59,108.89Z"/><circle class="cls-2" cx="553.69" cy="98.15" r="8.09"/><path class="cls-3" d="M550.9,94.73v6h-.59v-6h-1.58v-.57h3.75v.57Z"/><path class="cls-3" d="M557.49,100.77V96.24l0,.28-1.53,4.25h-.32l-1.54-4.25,0-.28v4.53h-.6V94.16h.31l2,5.42,0,.25v-.25l2-5.42h.32v6.61Z"/><path class="cls-4" d="M11.89,104.73s73.86,40.4,90.76,58.21l2.82,1.09s-21.76-39.5-27.36-89.25C78.11,74.78,42.72,78.11,11.89,104.73Z"/><path class="cls-5" d="M13.78,105l-.86-.71C13,104.14,24.86,90.66,51.16,81c24.23-8.89,66.08-16.29,127.89-1L178.78,81c-33.93-8.38-83.53-15-127.13,1C25.59,91.55,13.9,104.85,13.78,105Z"/><path class="cls-6" d="M108.35,169.66C83,121.41,77,79.67,76.51,53.16c-.57-28.75,4.94-46.33,5-46.5l1,.31c-.05.17-5.52,17.63-4.94,46.22.53,26.39,6.47,67.93,31.72,116Z"/><path class="cls-7" d="M3.75,113.26c33.42-32.34,61.38-69.34,82.61-112"/><path class="cls-7" d="M100.13,187.49c15.42-46.23,38.59-85.91,82.62-112"/><path class="cls-7" d="M77.89,1.05q40.53,50.22,104.59,82.73"/><path class="cls-7" d="M1.05,99.94c48.63,22.7,94.59,54.86,138.43,93.45"/><path class="cls-8" d="M171.87,79.1S117.59,49.87,83.21,8.3l-1.57,3S75,36.26,79.36,74C79.36,74,117,66.26,171.87,79.1Z"/><path class="cls-9" d="M80,75.5s3.22,42.72,27.94,89.12c0,0,19.64-54.3,65.18-84.24C173.08,80.38,124.73,67.74,80,75.5Z"/><path class="cls-10" d="M78.34,18.54S57.87,59.22,15.48,102.93c0,0,20.25-21.36,61.87-28.7C77.35,74.23,73.6,41,78.34,18.54Z"/></g></g></svg>